<?xml version="1.0" encoding="UTF-8" standalone="no"?>
<!DOCTYPE svg PUBLIC "-//W3C//DTD SVG 1.1//EN" "http://www.w3.org/Graphics/SVG/1.1/DTD/svg11.dtd">
<svg width="100%" height="100%" viewBox="0 0 1024 1024" version="1.1" xmlns="http://www.w3.org/2000/svg" xmlns:xlink="http://www.w3.org/1999/xlink" xml:space="preserve" xmlns:serif="http://www.serif.com/" style="fill-rule:evenodd;clip-rule:evenodd;stroke-linecap:round;stroke-linejoin:round;stroke-miterlimit:1.5;">
    <g transform="matrix(1.3964,0,0,1.3964,-203.112,-67.8387)">
        <path d="M512.11,444.462C512.146,444.038 512.183,443.676 512.22,443.38C516.664,408.561 731.738,310.929 814.566,322.689C816.992,323.033 738.127,419.619 738.127,419.619C738.127,419.619 602.871,437.443 512.22,576.482C512.183,576.539 512.146,576.508 512.11,576.392C512.074,576.508 512.038,576.539 512,576.482C421.349,437.443 286.093,419.619 286.093,419.619C286.093,419.619 207.228,323.033 209.654,322.689C292.483,310.929 507.556,408.561 512,443.38C512.038,443.676 512.074,444.038 512.11,444.462Z" style="fill:rgb(80,80,80);stroke:rgb(128,128,128);stroke-width:4.3px;"/>
        <g transform="matrix(1,0,0,1,-0.774429,1.30695)">
            <path d="M512.774,443.545C512.88,443.725 600.796,293.498 782.198,289.193C784.817,289.13 735.599,393.508 735.599,393.508C735.599,393.508 577.295,430.461 512.774,562.017C512.565,562.445 512.912,562.298 512.774,562.017C448.254,430.461 290.482,393.508 290.482,393.508C290.482,393.508 241.263,289.13 243.882,289.193C425.285,293.498 480.678,388.968 512.774,443.545Z" style="fill:rgb(217,217,217);stroke:rgb(154,154,154);stroke-width:2.86px;"/>
        </g>
        <g transform="matrix(1,0,0,1,-0.774429,-17.849)">
            <path d="M512.774,477.148C512.88,477.328 586.831,291.072 768.233,286.767C770.852,286.705 723.715,399.528 723.715,399.528C723.715,399.528 577.56,441.825 513.04,573.38C512.83,573.808 513.178,573.662 513.04,573.38C448.52,441.825 302.58,400.67 302.58,400.67C302.58,400.67 254.371,291.032 256.991,291.094C438.393,295.399 480.678,422.571 512.774,477.148Z" style="fill:rgb(217,217,217);stroke:rgb(154,154,154);stroke-width:2.86px;"/>
        </g>
        <path d="M512,443.824C512.016,443.855 512.068,443.855 512.084,443.824C611.539,255.092 752.5,253.966 752.5,253.966L707.023,370.189C707.023,370.189 560.48,408.554 512.084,561.814C512.068,561.866 512.054,559.581 512.042,555.613C512.03,559.581 512.017,561.866 512,561.814C463.604,408.554 317.061,370.189 317.061,370.189L271.584,253.966C271.584,253.966 374.074,254.784 465.929,372.035C481.798,392.291 497.349,416.022 512,443.824Z" style="fill:url(#_Linear1);stroke:rgb(154,154,154);stroke-width:2.86px;"/>
        <path d="M511.838,442.853L512.266,555.8" style="fill:none;stroke:rgb(154,154,154);stroke-width:2.86px;"/>
    </g>
    <defs>
        <linearGradient id="_Linear1" x1="0" y1="0" x2="1" y2="0" gradientUnits="userSpaceOnUse" gradientTransform="matrix(394.861,0,0,394.861,309.967,321.712)"><stop offset="0" style="stop-color:white;stop-opacity:1"/><stop offset="0.24" style="stop-color:rgb(234,234,234);stop-opacity:1"/><stop offset="0.5" style="stop-color:rgb(177,177,177);stop-opacity:1"/><stop offset="0.76" style="stop-color:rgb(234,234,234);stop-opacity:1"/><stop offset="1" style="stop-color:white;stop-opacity:1"/></linearGradient>
    </defs>
</svg>
